<?xml version="1.0" encoding="UTF-8" standalone="no"?>
<!DOCTYPE svg PUBLIC "-//W3C//DTD SVG 1.1//EN" "http://www.w3.org/Graphics/SVG/1.1/DTD/svg11.dtd">
<!-- Created with Vectornator (http://vectornator.io/) -->
<svg height="100%" stroke-miterlimit="10" style="fill-rule:nonzero;clip-rule:evenodd;stroke-linecap:round;stroke-linejoin:round;" version="1.1" viewBox="0 0 180 252" width="100%" xml:space="preserve" xmlns="http://www.w3.org/2000/svg" xmlns:vectornator="http://vectornator.io" xmlns:xlink="http://www.w3.org/1999/xlink">
<defs>
<clipPath id="TextBounds">
<rect height="39" width="18.0781" x="8.20312" y="3"/>
</clipPath>
<clipPath id="TextBounds_2">
<rect height="39" width="18.0781" x="153.719" y="210"/>
</clipPath>
<clipPath id="TextBounds_3">
<rect height="39" width="23.5312" x="5.47656" y="29"/>
</clipPath>
<clipPath id="TextBounds_4">
<rect height="39" width="21.5156" x="6.48438" y="55"/>
</clipPath>
<clipPath id="TextBounds_5">
<rect height="39" width="20.1562" x="7.16406" y="81"/>
</clipPath>
<clipPath id="TextBounds_6">
<rect height="39" width="21.9531" x="6.26562" y="107"/>
</clipPath>
<clipPath id="TextBounds_7">
<rect height="39" width="23.5312" x="150.992" y="184"/>
</clipPath>
<clipPath id="TextBounds_8">
<rect height="39" width="21.5156" x="152" y="158"/>
</clipPath>
<clipPath id="TextBounds_9">
<rect height="39" width="20.1562" x="152.68" y="132"/>
</clipPath>
<clipPath id="TextBounds_10">
<rect height="39" width="21.9531" x="151.781" y="106"/>
</clipPath>
</defs>
<g id="Layer-1" vectornator:layerName="Layer 1">
<path d="M16 0L164 0C172.837 0 180 7.16344 180 16L180 236C180 244.837 172.837 252 164 252L16 252C7.16344 252 0 244.837 0 236L0 16C0 7.16344 7.16344 0 16 0Z" fill="#ffffff" fill-rule="nonzero" opacity="1" stroke="none"/>
<path clip-path="url(#TextBounds)" d="M19.5312 13.0312L19.5312 27.0156C19.5312 29.5469 18.25 31 16.0469 31C14.4688 31 13.3125 30.2812 12.6406 28.9062C12.2344 28.1094 11.9375 27.8438 11.3906 27.8438C10.6875 27.8438 10.25 28.3438 10.25 29.1562C10.25 30 10.6875 30.9375 11.4062 31.6875C12.5156 32.8438 14.125 33.4531 16.1562 33.4531C19.9219 33.4531 22.2656 30.9531 22.2656 26.9062L22.2656 13.0312C22.2656 12.0938 21.7344 11.5156 20.8906 11.5156C20.0469 11.5156 19.5312 12.0938 19.5312 13.0312Z" fill="#000000" opacity="1" stroke="none"/>
<path clip-path="url(#TextBounds_2)" d="M160.469 238.969L160.469 224.984C160.469 222.453 161.75 221 163.953 221C165.531 221 166.688 221.719 167.359 223.094C167.766 223.891 168.062 224.156 168.609 224.156C169.312 224.156 169.75 223.656 169.75 222.844C169.75 222 169.312 221.062 168.594 220.312C167.484 219.156 165.875 218.547 163.844 218.547C160.078 218.547 157.734 221.047 157.734 225.094L157.734 238.969C157.734 239.906 158.266 240.484 159.109 240.484C159.953 240.484 160.469 239.906 160.469 238.969Z" fill="#000000" opacity="1" stroke="none"/>
<path clip-path="url(#TextBounds_3)" d="M8.71094 50.0156C8.71094 55.875 11.8828 59.4531 17.2422 59.4531C22.5234 59.4531 25.7734 55.875 25.7734 50.0156L25.7734 46.875C25.7734 40.9219 22.5234 37.2188 17.2422 37.2188C11.9922 37.2188 8.71094 40.9219 8.71094 46.875L8.71094 50.0156ZM11.4453 46.875C11.4453 42.4219 13.6641 39.6719 17.2422 39.6719C20.8047 39.6719 23.0391 42.4219 23.0391 46.875L23.0391 50.0156C23.0391 54.375 20.8047 57.0156 17.2422 57.0156C13.6641 57.0156 11.4453 54.375 11.4453 50.0156L11.4453 46.875Z" fill="#000000" opacity="1" stroke="none"/>
<path clip-path="url(#TextBounds_4)" d="M24.0781 85.0469C24.9062 85.0469 25.4844 84.5 25.4844 83.7031C25.4844 83.2969 25.3438 83.0156 24.6875 82.1094L18 72.8281L24.1406 66.1094C24.7656 65.4531 24.8906 65.2188 24.8906 64.8125C24.8906 64.1562 24.375 63.625 23.6875 63.625C23.2344 63.625 22.875 63.8281 22.2969 64.4688L13.4062 73.9531L13.2812 73.9531L13.2812 65.0156C13.2812 64.0938 12.75 63.5156 11.9062 63.5156C11.0625 63.5156 10.5469 64.0938 10.5469 65.0156L10.5469 83.6562C10.5469 84.5781 11.0625 85.1562 11.9062 85.1562C12.75 85.1562 13.2812 84.5781 13.2812 83.6562L13.2812 77.4844L15.9688 74.7031L22.5156 83.9688C23.0625 84.7344 23.5312 85.0469 24.0781 85.0469Z" fill="#000000" opacity="1" stroke="none"/>
<path clip-path="url(#TextBounds_5)" d="M11.2266 108.688C11.2266 110.344 11.9453 111 13.7422 111L22.7891 111C23.6484 111 24.1953 110.547 24.1953 109.797C24.1953 109.047 23.6484 108.562 22.8047 108.562L13.9453 108.562L13.9453 101.312L22.2578 101.312C23.1016 101.312 23.6328 100.875 23.6328 100.125C23.6328 99.375 23.1016 98.9219 22.2578 98.9219L13.9453 98.9219L13.9453 92.1094L22.8047 92.1094C23.6484 92.1094 24.1953 91.6406 24.1953 90.8906C24.1953 90.1406 23.6484 89.6719 22.8047 89.6719L13.7422 89.6719C11.9453 89.6719 11.2266 90.3281 11.2266 91.9844L11.2266 108.688Z" fill="#000000" opacity="1" stroke="none"/>
<path clip-path="url(#TextBounds_6)" d="M13.0469 135.656L13.0469 128.516L18.2344 128.516L21.9062 135.797C22.375 136.719 22.7812 137.047 23.4688 137.047C24.2031 137.047 24.7969 136.531 24.7969 135.844C24.7969 135.5 24.6875 135.078 24.5469 134.781L20.9375 127.922C23.375 127.047 24.8906 124.812 24.8906 122.047C24.8906 118.141 22.25 115.672 18.0469 115.672L12.8906 115.672C11.0469 115.672 10.3281 116.344 10.3281 118.062L10.3281 135.656C10.3281 136.578 10.8281 137.156 11.6875 137.156C12.5312 137.156 13.0469 136.578 13.0469 135.656ZM13.0469 126.141L13.0469 118.094L17.7031 118.094C20.4688 118.094 22.0938 119.594 22.0938 122.188C22.0938 124.766 20.5156 126.141 17.5938 126.141L13.0469 126.141Z" fill="#000000" opacity="1" stroke="none"/>
<path clip-path="url(#TextBounds_7)" d="M171.289 201.984C171.289 196.125 168.117 192.547 162.758 192.547C157.477 192.547 154.227 196.125 154.227 201.984L154.227 205.125C154.227 211.078 157.477 214.781 162.758 214.781C168.008 214.781 171.289 211.078 171.289 205.125L171.289 201.984ZM168.555 205.125C168.555 209.578 166.336 212.328 162.758 212.328C159.195 212.328 156.961 209.578 156.961 205.125L156.961 201.984C156.961 197.625 159.195 194.984 162.758 194.984C166.336 194.984 168.555 197.625 168.555 201.984L168.555 205.125Z" fill="#000000" opacity="1" stroke="none"/>
<path clip-path="url(#TextBounds_8)" d="M155.922 166.953C155.094 166.953 154.516 167.5 154.516 168.297C154.516 168.703 154.656 168.984 155.312 169.891L162 179.172L155.859 185.891C155.234 186.547 155.109 186.781 155.109 187.188C155.109 187.844 155.625 188.375 156.312 188.375C156.766 188.375 157.125 188.172 157.703 187.531L166.594 178.047L166.719 178.047L166.719 186.984C166.719 187.906 167.25 188.484 168.094 188.484C168.938 188.484 169.453 187.906 169.453 186.984L169.453 168.344C169.453 167.422 168.938 166.844 168.094 166.844C167.25 166.844 166.719 167.422 166.719 168.344L166.719 174.516L164.031 177.297L157.484 168.031C156.938 167.266 156.469 166.953 155.922 166.953Z" fill="#000000" opacity="1" stroke="none"/>
<path clip-path="url(#TextBounds_9)" d="M168.773 143.312C168.773 141.656 168.055 141 166.258 141L157.211 141C156.352 141 155.805 141.453 155.805 142.203C155.805 142.953 156.352 143.438 157.195 143.438L166.055 143.438L166.055 150.688L157.742 150.688C156.898 150.688 156.367 151.125 156.367 151.875C156.367 152.625 156.898 153.078 157.742 153.078L166.055 153.078L166.055 159.891L157.195 159.891C156.352 159.891 155.805 160.359 155.805 161.109C155.805 161.859 156.352 162.328 157.195 162.328L166.258 162.328C168.055 162.328 168.773 161.672 168.773 160.016L168.773 143.312Z" fill="#000000" opacity="1" stroke="none"/>
<path clip-path="url(#TextBounds_10)" d="M166.953 116.344L166.953 123.484L161.766 123.484L158.094 116.203C157.625 115.281 157.219 114.953 156.531 114.953C155.797 114.953 155.203 115.469 155.203 116.156C155.203 116.5 155.312 116.922 155.453 117.219L159.062 124.078C156.625 124.953 155.109 127.188 155.109 129.953C155.109 133.859 157.75 136.328 161.953 136.328L167.109 136.328C168.953 136.328 169.672 135.656 169.672 133.938L169.672 116.344C169.672 115.422 169.172 114.844 168.312 114.844C167.469 114.844 166.953 115.422 166.953 116.344ZM166.953 125.859L166.953 133.906L162.297 133.906C159.531 133.906 157.906 132.406 157.906 129.812C157.906 127.234 159.484 125.859 162.406 125.859L166.953 125.859Z" fill="#000000" opacity="1" stroke="none"/>
<path d="M15 1L165 1C172.732 1 179 7.28814 179 15.0449L179 236.955C179 244.712 172.732 251 165 251L15 251C7.26801 251 1 244.712 1 236.955L1 15.0449C1 7.28814 7.26801 1 15 1Z" fill="none" opacity="1" stroke="#000000" stroke-linecap="round" stroke-linejoin="round" stroke-width="2"/>
</g>
</svg>
